<svg xmlns="http://www.w3.org/2000/svg" viewBox="0 0 173.18 30.72"><defs><style>.cls-1{fill:none;}.cls-2{fill:#4285f4;}.cls-3{fill:#34a853;}.cls-4{fill:#ea4335;}.cls-5{fill:#fbbc05;}.cls-6{fill:#fff;}</style></defs><g id="Layer_2" data-name="Layer 2"><g id="Layer_1-2" data-name="Layer 1"><path class="cls-1" d="M29.09,12.71a1.59,1.59,0,0,0-.13.13,4.58,4.58,0,0,0-1.29,3.33A4.63,4.63,0,0,0,29,19.5h0a4.17,4.17,0,0,0,5.89.19l.2-.19a4.57,4.57,0,0,0,1.28-3.33,4.57,4.57,0,0,0-1.28-3.33A4.24,4.24,0,0,0,29.09,12.71Z"/><path class="cls-1" d="M65.5,11.59a4,4,0,0,0-3,1.29,4.68,4.68,0,0,0-1.29,3.33,4.61,4.61,0,0,0,1.29,3.3,4,4,0,0,0,3,1.31,3.74,3.74,0,0,0,2.91-1.29,4.68,4.68,0,0,0,1.17-3.29,4.85,4.85,0,0,0-1.17-3.36A3.72,3.72,0,0,0,65.5,11.59Z"/><path class="cls-1" d="M45.85,12.71a1.59,1.59,0,0,1-.13.13,4.57,4.57,0,0,0-1.28,3.33,4.55,4.55,0,0,0,1.3,3.33h0a4.18,4.18,0,0,0,5.9.19l.19-.19a4.62,4.62,0,0,0,1.29-3.33,4.58,4.58,0,0,0-1.29-3.33A4.23,4.23,0,0,0,45.85,12.71Z"/><path class="cls-1" d="M88.94,11.92a3.64,3.64,0,0,0-1.77-.45A4,4,0,0,0,84.4,12.7a4.1,4.1,0,0,0-1.25,3.24L90,13.1A2.35,2.35,0,0,0,88.94,11.92Z"/><path class="cls-2" d="M72.56,9h-3.2v1.23h-.11A4.66,4.66,0,0,0,67.57,9a5.52,5.52,0,0,0-2.36-.52,6.94,6.94,0,0,0-5.15,2.25,7.49,7.49,0,0,0-2.21,5.43,7.39,7.39,0,0,0,2.21,5.4,7,7,0,0,0,5.15,2.24,4.91,4.91,0,0,0,4-1.74h.11v1.11a4.7,4.7,0,0,1-1.07,3.35,3.86,3.86,0,0,1-3,1.15,3.66,3.66,0,0,1-2.41-.81A5,5,0,0,1,61.42,25l-2.94,1.23A8.07,8.07,0,0,0,61,29.35a6.76,6.76,0,0,0,4.29,1.36,7.2,7.2,0,0,0,5.24-2,8,8,0,0,0,2-6ZM68.41,19.53a3.74,3.74,0,0,1-2.91,1.29,4,4,0,0,1-3-1.31,4.61,4.61,0,0,1-1.29-3.3,4.68,4.68,0,0,1,1.29-3.33,4,4,0,0,1,3-1.29,3.72,3.72,0,0,1,2.91,1.29,4.85,4.85,0,0,1,1.17,3.36A4.68,4.68,0,0,1,68.41,19.53Z"/><rect class="cls-3" x="74.88" y="0.86" width="3.36" height="22.51"/><path class="cls-2" d="M12.1,10.87v3.29h7.73a6.82,6.82,0,0,1-1.76,4A8.66,8.66,0,0,1,6,18a8.45,8.45,0,0,1-2.48-6A8.46,8.46,0,0,1,6,5.87,8.17,8.17,0,0,1,12.07,3.3a8.23,8.23,0,0,1,5.85,2.31l2.3-2.33A11.4,11.4,0,0,0,12.07,0a11.76,11.76,0,0,0-8.5,3.55A11.37,11.37,0,0,0,0,12a11.37,11.37,0,0,0,3.57,8.4,11.69,11.69,0,0,0,8.5,3.48,10.94,10.94,0,0,0,8.28-3.36,10.35,10.35,0,0,0,2.82-7.59,11.2,11.2,0,0,0-.13-2Z"/><path class="cls-4" d="M37.48,10.7a7.9,7.9,0,0,0-10.9,0,7.32,7.32,0,0,0-2.23,5.47,7.34,7.34,0,0,0,2.23,5.48,7.88,7.88,0,0,0,10.9,0h0a7.37,7.37,0,0,0,2.24-5.48A7.32,7.32,0,0,0,37.48,10.7Zm-2.4,8.8-.2.19A4.17,4.17,0,0,1,29,19.5h0a4.63,4.63,0,0,1-1.3-3.33A4.58,4.58,0,0,1,29,12.84a1.59,1.59,0,0,1,.13-.13,4.24,4.24,0,0,1,6,.13,4.57,4.57,0,0,1,1.28,3.33A4.57,4.57,0,0,1,35.08,19.5Z"/><path class="cls-5" d="M43.34,10.7a7.39,7.39,0,0,0-2.23,5.47,7.42,7.42,0,0,0,2.23,5.48,7.89,7.89,0,0,0,10.91,0,7.42,7.42,0,0,0,2.23-5.48,7.39,7.39,0,0,0-2.23-5.47A7.89,7.89,0,0,0,43.34,10.7Zm8.5,8.8-.19.19a4.18,4.18,0,0,1-5.9-.19h0a4.55,4.55,0,0,1-1.3-3.33,4.57,4.57,0,0,1,1.28-3.33,1.59,1.59,0,0,0,.13-.13,4.23,4.23,0,0,1,6,.13,4.58,4.58,0,0,1,1.29,3.33A4.62,4.62,0,0,1,51.84,19.5Z"/><path class="cls-4" d="M87.46,20.8a3.88,3.88,0,0,1-3.71-2.32l10.3-4.24-.35-.87a9.28,9.28,0,0,0-.76-1.51,8.77,8.77,0,0,0-1.29-1.56,6.06,6.06,0,0,0-2-1.29,6.47,6.47,0,0,0-2.57-.5A6.88,6.88,0,0,0,82,10.66a7.54,7.54,0,0,0-2.1,5.51A7.46,7.46,0,0,0,82,21.63a7.29,7.29,0,0,0,5.43,2.2h0a7,7,0,0,0,3.87-1.08,8.23,8.23,0,0,0,2.47-2.34l-2.57-1.74A4.41,4.41,0,0,1,87.46,20.8ZM84.4,12.7a4,4,0,0,1,2.77-1.23,3.64,3.64,0,0,1,1.77.45A2.35,2.35,0,0,1,90,13.1l-6.85,2.84A4.1,4.1,0,0,1,84.4,12.7Z"/><path id="path16" class="cls-6" d="M111.65,23.83a10.6,10.6,0,0,1-10.79-10.42V13A10.6,10.6,0,0,1,111.22,2.13h.43a9.62,9.62,0,0,1,7.64,3.39l-1.86,1.81a7,7,0,0,0-5.77-2.64A7.88,7.88,0,0,0,105.93,7a8,8,0,0,0-2.33,6,8,8,0,0,0,2.33,6,7.88,7.88,0,0,0,5.73,2.29,8.17,8.17,0,0,0,6.44-3L120,20.11a10.11,10.11,0,0,1-3.56,2.72A10.8,10.8,0,0,1,111.65,23.83Z"/><path id="path18" class="cls-6" d="M124.94,23.37h-2.67V2.58h2.67Z"/><path id="path20" class="cls-6" d="M129.29,10.86a7.32,7.32,0,0,1,12.57,5.4,7.32,7.32,0,1,1-14.63,0A7.51,7.51,0,0,1,129.29,10.86Zm2,9.14a4.5,4.5,0,0,0,6.36.17l.17-.17a5.17,5.17,0,0,0,1.38-3.74,5.14,5.14,0,0,0-1.38-3.73,4.5,4.5,0,0,0-6.35-.18l-.18.18a5.14,5.14,0,0,0-1.37,3.73A5.07,5.07,0,0,0,131.29,20Z"/><path id="path22" class="cls-6" d="M156.63,23.37h-2.58v-2H154a4.88,4.88,0,0,1-1.88,1.78,5.3,5.3,0,0,1-2.64.71,5,5,0,0,1-4-1.63A6.5,6.5,0,0,1,144,17.91V9.16h2.67v8.26q0,4,3.51,4a3.29,3.29,0,0,0,2.71-1.29A4.81,4.81,0,0,0,154,17V9.16h2.67Z"/><path id="path24" class="cls-6" d="M165.68,23.83a6.25,6.25,0,0,1-4.77-2.17,7.73,7.73,0,0,1-2-5.4,7.71,7.71,0,0,1,2-5.39,6.29,6.29,0,0,1,4.77-2.18,6.16,6.16,0,0,1,2.91.7,4.83,4.83,0,0,1,1.93,1.74h.12l-.12-2V2.58h2.66V23.37h-2.57v-2h-.12a4.91,4.91,0,0,1-1.93,1.74,5.92,5.92,0,0,1-2.88.69Zm.44-2.43a4.25,4.25,0,0,0,3.2-1.39,5.2,5.2,0,0,0,1.29-3.75,5.18,5.18,0,0,0-1.29-3.74,4.35,4.35,0,0,0-6.15-.29l-.29.29a5.13,5.13,0,0,0-1.28,3.73A5.13,5.13,0,0,0,162.88,20a4.24,4.24,0,0,0,3.24,1.42Z"/></g></g></svg>