<svg id="Layer_1" data-name="Layer 1" xmlns="http://www.w3.org/2000/svg" viewBox="0 0 674.4 156.55"><defs><style>.cls-1{fill:#b2181f;}.cls-2{fill:#fff;}.cls-3{fill:#981f23;}.cls-4{fill:red;}</style></defs><path class="cls-1" d="M5.1,33.7l24,10.8a12.34,12.34,0,0,0,9.6.3,13.06,13.06,0,0,0,7.1-6.6L62.2.5c0-.2,0-.2-.2-.2L5,33.3C5.1,33.3,5.1,33.5,5.1,33.7Z"/><path class="cls-2" d="M182.3,102a62.37,62.37,0,0,0,25.2,4.9c11,0,15.9-2,15.9-8.6,0-5.2-3.2-7.6-10.7-12L195.6,76c-7.4-4.4-12.3-10.5-12.3-20.1,0-13.2,8.6-19.6,27.4-19.6a53.78,53.78,0,0,1,22.5,4.4V53.2c-6.8-3.4-13.7-4.7-22.5-4.7-9.8,0-14,2-14,7.6,0,4.4,2.5,6.6,7.8,9.6l17.6,10.8c8.6,5.2,14.7,10.5,14.7,21.6,0,13.9-9.1,21-29.6,21-11.2,0-18.8-2-24.9-4.7V102Z"/><path class="cls-2" d="M255.5,29.4a7.8,7.8,0,1,1-7.9,7.8A8.17,8.17,0,0,1,255.5,29.4Zm-6.4,26.9h12.7v61.4H249.1V56.3Z"/><path class="cls-2" d="M327.1,91.7H287.4v2.7c0,9,5.2,12.7,17.8,12.7,7.1,0,16.6-1.7,21.1-3.6v12c-5.8,2.4-14,3.6-21.1,3.6-20.6,0-30.4-7.6-30.4-26.6V81.7c0-15.6,6.8-26.9,27.6-26.9,17.1,0,26.2,8.6,26.2,25.7A99.11,99.11,0,0,1,327.1,91.7ZM287.3,81.3h28.9v-3c0-8.5-5.2-12.2-14.5-12.2S287.3,70,287.3,78.3Z"/><path class="cls-2" d="M351.9,117.7H339.2V79c0-15.2,7.9-24,25.2-24,9.5,0,15.6,3.4,18.6,9,3.2-5.8,9.3-9,18.6-9,17.8,0,25,8.6,25,24v38.7H414V79c0-7.8-2.2-12.2-12.2-12.2S389.3,71.2,389.3,79v38.7H377V79c0-7.8-2-12.2-12.2-12.2S352.5,71.2,352.5,79v38.7Z"/><path class="cls-2" d="M440.2,81.3c0-18.1,11-26.4,28.2-26.4,18.9,0,28.4,8.3,28.4,26.4V92.1c0,16.9-7.9,27.1-25.7,27.1-9.5,0-15.1-3-18.3-8.1v31.5H440.1V81.3Zm44,.4c0-9.6-2.5-14.9-15.6-14.9-12.7,0-15.7,5.2-15.7,14.9V92.4c0,9.6,3,14.7,15.7,14.7s15.6-5.1,15.6-14.7Z"/><path class="cls-2" d="M545.8,29.4a7.8,7.8,0,1,1-7.9,7.8A8,8,0,0,1,545.8,29.4Zm-6.5,26.9H552v61.4H539.3Z"/><path class="cls-2" d="M509.9,29.1h12.7v88.6H509.9V29.1Z"/><path class="cls-2" d="M564.4,58.2l10.8-2V49c0-16.6,9.5-21.5,22.3-21.5a41.88,41.88,0,0,1,13.2,1.9V41.2a40.38,40.38,0,0,0-12.3-1.7c-6.3,0-10.5,2-10.5,8.5v8.1h21.6V68H587.9v49.6H575.2V68H564.4Z"/><path class="cls-2" d="M638.3,101.6c1.2,5.2,3,6.1,6.8,6.1,2.7,0,4.6-.8,5.8-6.1l10.5-45.5h13l-14.7,61.4c-4.2,17.8-13.5,27.7-30.9,27.4l-2.5-11c12.7.2,17.8-6.8,20.6-16.2-1.4.7-3.6.8-5.8.8-10,0-12.7-6.4-15.1-15.9L614.2,56.1h13Z"/><path class="cls-3" d="M30.9,57.7a12.86,12.86,0,0,0-6.4-8.3h0L.2,38.6c-.2,0-.2,0-.2.2v69.8s0,.2.2,0L29.1,67.8A12.54,12.54,0,0,0,30.9,57.7Z"/><path class="cls-4" d="M83.5,54.6h0c-.7.2-1.2.3-1.9.5-2.5.5-5.1,1-7.4,1.5s-4.6,1-6.9,1.5h-.2c-2,.5-4.2.8-6.1,1.9a15.75,15.75,0,0,0-4.9,4.7c-2.4,4.1-.8,7.9.3,11.8l2.2,6.8s7.4,21,8.6,24.2h0L55.1,86.3l-2.9-4.7h0c-2.7-4.1-5.9-8.3-10.8-8.6a12.78,12.78,0,0,0-10.7,4.9l-29.3,40c-.2.2,0,.3.2.3l66.1,38.2c.2.2.3.2.5,0l67.6-39.1c.2-.2.3-.3.3-.5V39.1c0-.2-.2-.3-.3-.5L69,0h-.2l-12,33.5c-1.5,3.9-1.7,8.5.8,11.8s5.9,4.6,10,4.9a27.92,27.92,0,0,0,5.8-.2q7-.45,14.4-1.5l32.8-2.7s.2.2,0,.2Z"/></svg>