<svg xmlns="http://www.w3.org/2000/svg" viewBox="0 0 398.73 118.05"><defs><style>.cls-1{fill:#b2181f;}.cls-2{fill:#fff;}.cls-3{fill:#981f23;}.cls-4{fill:red;}.cls-5{fill:none;}.cls-6{fill:#4285f4;}.cls-7{fill:#34a853;}.cls-8{fill:#ea4335;}.cls-9{fill:#fbbc05;}</style></defs><g id="Layer_2" data-name="Layer 2"><g id="Layer_1-2" data-name="Layer 1"><g id="Logo_Dark" data-name="Logo Dark"><path class="cls-1" d="M3,19.88l14.23,6.45a7.47,7.47,0,0,0,9.88-3.68L36.85.38a.08.08,0,0,0-.11-.1L3,19.74A.07.07,0,0,0,3,19.88Z"/><path class="cls-2" d="M107.79,60.3a37.6,37.6,0,0,0,14.86,2.85c6.52,0,9.45-1.24,9.45-5.13,0-3.07-1.9-4.47-6.3-7.1l-10.11-6.08c-4.39-2.64-7.32-6.15-7.32-11.94,0-7.84,5.13-11.57,16.18-11.57A31.15,31.15,0,0,1,137.88,24v7.4a28.53,28.53,0,0,0-13.33-2.78c-5.78,0-8.27,1.17-8.27,4.54,0,2.64,1.54,3.88,4.61,5.71l10.4,6.37C136.42,48.29,140,51.36,140,58c0,8.2-5.42,12.38-17.5,12.38a36.06,36.06,0,0,1-14.72-2.78V60.3Z"/><path class="cls-2" d="M151.15,17.47a4.61,4.61,0,1,1-4.69,4.61A4.64,4.64,0,0,1,151.15,17.47Zm-3.81,15.81h7.54V69.6h-7.54Z"/><path class="cls-2" d="M193.36,54.22H169.85v1.61c0,5.35,3.08,7.47,10.47,7.47,4.25,0,9.81-.95,12.52-2.12v7.1a35.66,35.66,0,0,1-12.52,2.12c-12.16,0-18-4.47-18-15.67V48.36c0-9.15,4-15.89,16.26-15.89,10.11,0,15.52,5.13,15.52,15.16A27.34,27.34,0,0,1,193.36,54.22Zm-23.51-6.15H187V46.24c0-5-3.15-7.25-8.64-7.25s-8.49,2.27-8.49,7.25v1.83Z"/><path class="cls-2" d="M208.14,69.6H200.6V46.68c0-9,4.69-14.21,14.87-14.21,5.64,0,9.15,2,11,5.35,1.9-3.37,5.49-5.35,11-5.35,10.54,0,14.79,5.05,14.79,14.21V69.6h-7.54V46.68c0-4.61-1.32-7.18-7.25-7.18s-7.4,2.56-7.4,7.18V69.6h-7.32V46.68c0-4.61-1.24-7.18-7.25-7.18s-7.32,2.56-7.32,7.18Z"/><path class="cls-2" d="M260.35,48.07c0-10.69,6.52-15.6,16.7-15.6,11.2,0,16.77,4.91,16.77,15.6v6.37c0,10-4.69,16-15.23,16-5.64,0-8.93-1.83-10.76-4.76v18.6h-7.47V48.07Zm25.92.22c0-5.71-1.54-8.79-9.15-8.79s-9.3,3.08-9.3,8.79v6.3c0,5.71,1.76,8.71,9.3,8.71s9.15-3,9.15-8.71Z"/><path class="cls-2" d="M322.75,17.47a4.61,4.61,0,1,1-4.69,4.61A4.64,4.64,0,0,1,322.75,17.47Zm-3.81,15.81h7.54V69.6h-7.54Z"/><path class="cls-2" d="M301.53,17.22h7.54V69.61h-7.54Z"/><path class="cls-2" d="M333.71,34.45l6.37-1.17V29c0-9.81,5.57-12.67,13.18-12.67a26.57,26.57,0,0,1,7.84,1.1v7a24.23,24.23,0,0,0-7.32-1c-3.73,0-6.22,1.17-6.22,5v4.83h12.81v7H347.56V69.59h-7.47V40.3h-6.37V34.45Z"/><path class="cls-2" d="M377.43,60.16c.73,3.08,1.76,3.59,3.95,3.59,1.61,0,2.71-.51,3.44-3.59L391,33.29h7.69L390,69.61c-2.49,10.47-8,16.4-18.31,16.18l-1.54-6.52c7.54.15,10.54-4,12.16-9.59a9,9,0,0,1-3.37.51c-5.93,0-7.47-3.81-8.86-9.37l-7-27.53h7.69Z"/><path class="cls-3" d="M18.31,34.13a7.41,7.41,0,0,0-3.78-4.87h0L.15,22.86A.11.11,0,0,0,0,23V64.27a0,0,0,0,0,.07,0L17.14,40.2A7.5,7.5,0,0,0,18.31,34.13Z"/><path class="cls-4" d="M49.44,32.33h0l-1.14.25c-1.47.33-3,.63-4.43.92s-2.72.55-4.08.85l-.11,0a13.33,13.33,0,0,0-3.63,1.07,7.48,7.48,0,0,0-2.86,2.83c-1.35,2.36-.53,4.67.23,7l1.33,4s4.39,12.36,5.08,14.29c0,0,0,0,0,0L32.56,51.05,30.9,48.24h0c-1.59-2.4-3.5-4.92-6.43-5.09A7.45,7.45,0,0,0,18.14,46L.77,69.72a.17.17,0,0,0,0,.24L40,92.56a.32.32,0,0,0,.3,0l40-23.07a.3.3,0,0,0,.15-.26V23.09a.3.3,0,0,0-.15-.26L40.7,0a.1.1,0,0,0-.14,0l-7.1,19.8a7.18,7.18,0,0,0,.55,7,7.34,7.34,0,0,0,5.89,2.85,22.54,22.54,0,0,0,3.4-.06c2.82-.23,5.64-.55,8.46-.86l19.35-1.62a0,0,0,0,1,0,.07Z"/></g><path class="cls-2" d="M107.66,99.45h2.2v1.7h.1a4.12,4.12,0,0,1,1.61-1.5,4.61,4.61,0,0,1,2.26-.6,4.5,4.5,0,0,1,3.46,1.29,5.14,5.14,0,0,1,1.22,3.66v7.7h-2.3v-7.55q-.08-3-3-3a2.87,2.87,0,0,0-2.3,1.12,4,4,0,0,0-.92,2.66v6.77h-2.3Z"/><path class="cls-2" d="M120.51,105.58a6.5,6.5,0,0,1,1.77-4.68,6.07,6.07,0,0,1,4.53-1.85,6,6,0,0,1,4.5,1.85,6.44,6.44,0,0,1,1.8,4.68,6.35,6.35,0,0,1-1.8,4.67,6,6,0,0,1-4.5,1.85,6,6,0,0,1-4.53-1.85A6.48,6.48,0,0,1,120.51,105.58Zm2.3,0a4.49,4.49,0,0,0,1.15,3.2,3.94,3.94,0,0,0,5.7,0,5,5,0,0,0,0-6.38,3.87,3.87,0,0,0-5.7,0A4.45,4.45,0,0,0,122.81,105.58Z"/><path class="cls-2" d="M152.31,99.45l-3.95,12.25H146l-3-9.4-3,9.4h-2.32l-4-12.25h2.4l2.72,9.25h0l3-9.25h2.38l3,9.25h0l2.7-9.25Z"/><path class="cls-2" d="M165.68,112.1a5.31,5.31,0,0,1-2.46-.57,4.32,4.32,0,0,1-1.71-1.53h-.1l.1,1.7v5.4h-2.3V99.45h2.2v1.7h.1a4.3,4.3,0,0,1,1.71-1.52,5.19,5.19,0,0,1,2.46-.58,5.28,5.28,0,0,1,4.1,1.9,6.72,6.72,0,0,1,1.73,4.63,6.62,6.62,0,0,1-1.73,4.62A5.25,5.25,0,0,1,165.68,112.1Zm-.37-2.1a3.55,3.55,0,0,0,2.77-1.25,4.49,4.49,0,0,0,1.13-3.17,4.58,4.58,0,0,0-1.13-3.18,3.73,3.73,0,0,0-5.57,0,5.18,5.18,0,0,0,0,6.38A3.66,3.66,0,0,0,165.31,110Z"/><path class="cls-2" d="M178.26,99.05a5.68,5.68,0,0,1,4,1.37,4.79,4.79,0,0,1,1.48,3.73v7.55h-2.2V110h-.1a4.39,4.39,0,0,1-3.8,2.1,5,5,0,0,1-3.39-1.2,3.82,3.82,0,0,1-1.36-3,3.66,3.66,0,0,1,1.43-3,6.07,6.07,0,0,1,3.84-1.13,6.82,6.82,0,0,1,3.38.75V104a2.64,2.64,0,0,0-.95-2,3.28,3.28,0,0,0-2.23-.84,3.52,3.52,0,0,0-3,1.63l-2-1.28A5.63,5.63,0,0,1,178.26,99.05Zm-3,8.9a1.86,1.86,0,0,0,.76,1.5,2.82,2.82,0,0,0,1.79.6,3.69,3.69,0,0,0,2.59-1.07,3.37,3.37,0,0,0,1.14-2.53,4.78,4.78,0,0,0-3-.85,3.88,3.88,0,0,0-2.34.68A2,2,0,0,0,175.28,108Z"/><path class="cls-2" d="M186.36,99.45h2.2v2h.1c.68-1.56,2.09-2.35,4.22-2.35l.48.05v2.4l-1-.1a3.7,3.7,0,0,0-2.64,1,3.33,3.33,0,0,0-1,2.51v6.75h-2.3Zm14.35,12.45a3.53,3.53,0,0,1-2.49-.92,3.42,3.42,0,0,1-1-2.58v-6.85h-2.15v-2.1h2.15V95.7h2.3v3.75h3v2.1h-3v6.1a2.25,2.25,0,0,0,.47,1.67,1.56,1.56,0,0,0,1.08.43,2.33,2.33,0,0,0,.53-.06,3.13,3.13,0,0,0,.49-.16l.73,2A6.35,6.35,0,0,1,200.71,111.9Z"/><path class="cls-2" d="M209.51,105.58a6.5,6.5,0,0,1,1.77-4.68,6.07,6.07,0,0,1,4.53-1.85,6,6,0,0,1,4.5,1.85,6.44,6.44,0,0,1,1.8,4.68,6.35,6.35,0,0,1-1.8,4.67,6,6,0,0,1-4.5,1.85,6,6,0,0,1-4.53-1.85A6.48,6.48,0,0,1,209.51,105.58Zm2.3,0a4.49,4.49,0,0,0,1.15,3.2,3.94,3.94,0,0,0,5.7,0,5,5,0,0,0,0-6.38,3.87,3.87,0,0,0-5.7,0A4.45,4.45,0,0,0,211.81,105.58Z"/><path class="cls-2" d="M229.48,93.6a4.27,4.27,0,0,1,2.05.43l-.62,2a3,3,0,0,0-1.35-.3,1.81,1.81,0,0,0-1.39.59,2.21,2.21,0,0,0-.54,1.56v1.55h3.2v2.1h-3.2V111.7h-2.3V101.55H223v-2.1h2.3V97.68a3.93,3.93,0,0,1,1.16-3A4.13,4.13,0,0,1,229.48,93.6Z"/><path class="cls-5" d="M263,102.48a1.14,1.14,0,0,1-.11.11,4.28,4.28,0,0,0,0,5.76h0a3.61,3.61,0,0,0,5.1.17l.17-.17a4.29,4.29,0,0,0,0-5.76A3.66,3.66,0,0,0,263,102.48Z"/><path class="cls-5" d="M294.5,101.51a3.45,3.45,0,0,0-2.61,1.12,4.25,4.25,0,0,0,0,5.73,3.47,3.47,0,0,0,2.61,1.14,3.23,3.23,0,0,0,2.51-1.12,4.12,4.12,0,0,0,1-2.85,4.16,4.16,0,0,0-1-2.9A3.23,3.23,0,0,0,294.5,101.51Z"/><path class="cls-5" d="M277.5,102.48l-.1.11a4.25,4.25,0,0,0,0,5.76h0a3.61,3.61,0,0,0,5.1.17l.16-.17a4.26,4.26,0,0,0,0-5.76A3.66,3.66,0,0,0,277.5,102.48Z"/><path class="cls-5" d="M314.76,101.8a3.14,3.14,0,0,0-1.53-.39,3.67,3.67,0,0,0-3.47,3.87l5.92-2.46A2,2,0,0,0,314.76,101.8Z"/><path class="cls-6" d="M300.6,99.29h-2.76v1h-.1a4.19,4.19,0,0,0-1.45-1,4.69,4.69,0,0,0-2.05-.46,6,6,0,0,0-4.45,2,6.47,6.47,0,0,0-1.91,4.7,6.38,6.38,0,0,0,1.91,4.66,6.06,6.06,0,0,0,4.45,1.94,4.27,4.27,0,0,0,3.49-1.5h.1v1a4.12,4.12,0,0,1-.93,2.9,3.35,3.35,0,0,1-2.59,1,3.17,3.17,0,0,1-2.08-.7,4.2,4.2,0,0,1-1.26-1.66l-2.54,1.06a6.81,6.81,0,0,0,2.16,2.74,5.87,5.87,0,0,0,3.71,1.18,6.26,6.26,0,0,0,4.53-1.73,7,7,0,0,0,1.77-5.18ZM297,108.38a3.23,3.23,0,0,1-2.51,1.12,3.47,3.47,0,0,1-2.61-1.14,4.25,4.25,0,0,1,0-5.73,3.45,3.45,0,0,1,2.61-1.12,3.23,3.23,0,0,1,2.51,1.12,4.16,4.16,0,0,1,1,2.9A4.12,4.12,0,0,1,297,108.38Z"/><rect class="cls-7" x="302.6" y="92.24" width="2.91" height="19.46"/><path class="cls-6" d="M248.33,100.89v2.85H255a6,6,0,0,1-1.53,3.46,7.47,7.47,0,0,1-10.42-.12,7.5,7.5,0,0,1,0-10.51,7.07,7.07,0,0,1,5.23-2.23,7.19,7.19,0,0,1,5.07,2l2-2a9.86,9.86,0,0,0-7.05-2.84,10.14,10.14,0,0,0-7.35,3.08,10.08,10.08,0,0,0,0,14.51,10.1,10.1,0,0,0,7.35,3,9.48,9.48,0,0,0,7.16-2.9,8.9,8.9,0,0,0,2.44-6.57,9.2,9.2,0,0,0-.11-1.74Z"/><path class="cls-8" d="M270.27,100.75a6.81,6.81,0,0,0-9.43,0,6.76,6.76,0,0,0,0,9.46,6.81,6.81,0,0,0,9.43,0h0a6.75,6.75,0,0,0,0-9.46Zm-2.08,7.6-.17.17a3.61,3.61,0,0,1-5.1-.17h0a4.28,4.28,0,0,1,0-5.76,1.14,1.14,0,0,0,.11-.11,3.66,3.66,0,0,1,5.18.11,4.29,4.29,0,0,1,0,5.76Z"/><path class="cls-9" d="M275.34,100.75a6.76,6.76,0,0,0,0,9.46,6.81,6.81,0,0,0,9.43,0,6.79,6.79,0,0,0,0-9.46A6.81,6.81,0,0,0,275.34,100.75Zm7.34,7.6-.16.17a3.61,3.61,0,0,1-5.1-.17h0a4.25,4.25,0,0,1,0-5.76l.1-.11a3.66,3.66,0,0,1,5.18.11,4.26,4.26,0,0,1,0,5.76Z"/><path class="cls-8" d="M313.48,109.47a3.34,3.34,0,0,1-3.21-2l8.91-3.66-.3-.76a7.36,7.36,0,0,0-1.77-2.65,5.16,5.16,0,0,0-1.7-1.11,5.55,5.55,0,0,0-2.23-.44,6,6,0,0,0-4.45,1.86,6.51,6.51,0,0,0-1.82,4.77,6.42,6.42,0,0,0,1.88,4.72,6.3,6.3,0,0,0,4.69,1.9h0a6.1,6.1,0,0,0,3.35-.93,7.53,7.53,0,0,0,2.14-2l-2.23-1.5A3.79,3.79,0,0,1,313.48,109.47Zm-2.64-7a3.5,3.5,0,0,1,2.39-1.06,3.14,3.14,0,0,1,1.53.39,2,2,0,0,1,.92,1l-5.92,2.46A3.53,3.53,0,0,1,310.84,102.47Z"/><path id="path16" class="cls-2" d="M334.4,112.1a9.17,9.17,0,0,1-9.33-9v-.37a9.17,9.17,0,0,1,9-9.39h.37a8.3,8.3,0,0,1,6.6,2.94l-1.6,1.56a6.06,6.06,0,0,0-5-2.28,6.75,6.75,0,0,0-5,2,7.66,7.66,0,0,0,0,10.37,6.8,6.8,0,0,0,5,2,7.11,7.11,0,0,0,5.57-2.61l1.6,1.6a8.65,8.65,0,0,1-3.08,2.35A9.39,9.39,0,0,1,334.4,112.1Z"/><path id="path18" class="cls-2" d="M345.89,111.7h-2.31v-18h2.31Z"/><path id="path20" class="cls-2" d="M349.65,100.88a6.45,6.45,0,0,1,9.09,0,7,7,0,0,1,0,9.35,6.45,6.45,0,0,1-9.09,0,7,7,0,0,1,0-9.35Zm1.72,7.9a3.89,3.89,0,0,0,5.49.16l.15-.16a5,5,0,0,0,0-6.45,3.89,3.89,0,0,0-5.49-.16l-.15.16a4.94,4.94,0,0,0,0,6.44Z"/><path id="path22" class="cls-2" d="M373.29,111.7h-2.23V110H371a4.36,4.36,0,0,1-1.63,1.53,4.46,4.46,0,0,1-2.28.62,4.33,4.33,0,0,1-3.5-1.41A5.54,5.54,0,0,1,362.4,107V99.41h2.31v7.15q0,3.43,3,3.44a2.81,2.81,0,0,0,2.34-1.12,4.12,4.12,0,0,0,.9-2.66V99.41h2.31Z"/><path id="path24" class="cls-2" d="M381.12,112.1a5.38,5.38,0,0,1-4.12-1.88,7.15,7.15,0,0,1,0-9.33A5.38,5.38,0,0,1,381.12,99a5.11,5.11,0,0,1,2.51.6,4.24,4.24,0,0,1,1.67,1.5h.1l-.1-1.7V93.72h2.31v18h-2.23V110h-.1a4.24,4.24,0,0,1-1.67,1.5,5.17,5.17,0,0,1-2.49.6Zm.37-2.1a3.71,3.71,0,0,0,2.78-1.21,5.27,5.27,0,0,0,0-6.47,3.77,3.77,0,0,0-5.32-.26,3.07,3.07,0,0,0-.25.26,5.24,5.24,0,0,0,0,6.45,3.68,3.68,0,0,0,2.79,1.23Z"/></g></g></svg>